<svg width="29" height="52" viewBox="0 0 29 52" fill="none" xmlns="http://www.w3.org/2000/svg">
<path d="M29 0.722344V0.00193145H6.40088V3.32394H4.12541V0H0V4.04436H3.39056V6.17856H0V29H0.734851V6.89897H3.38859V9.75358H6.39891V11.6406H3.38859V15.2813H7.13573V12.361H9.27133V17.3749H3.38859V23.4492H4.12344V18.0972H10.0062V12.361H12.0354V15.2813H15.9618V11.6406H12.7702V9.75358H18.3555V4.04242H23.5132V3.32201H17.6207V9.03317H12.7722V6.89897H15.9638V3.32201H12.0374V6.17662H10.0082V3.32201H7.13573V0.720413H29V0.722344ZM12.7742 12.3629H15.2309V14.5608H12.7742V12.3629ZM9.2733 6.17856H7.1377V4.04436H9.2733V6.17856ZM7.1377 6.89897H9.2733V9.03317H7.1377V6.89897ZM12.7762 6.17856V4.04436H15.2329V6.17856H12.7762ZM12.0413 9.03317H10.0121V6.89897H12.0413V9.03317ZM10.0121 11.6406V9.75358H12.0413V11.6406H10.0121ZM6.40482 12.361V14.5589H4.12935V12.361H6.40482ZM7.13967 9.75358H9.27527V11.6406H7.13967V9.75358ZM4.12935 6.89897H6.40482V9.03317H4.12935V6.89897ZM3.3945 3.32201H0.740761V0.720413H3.3945V3.32201ZM6.40482 4.04242V6.17662H4.12935V4.04242H6.40482Z" fill="#FEB74F"/>
<path d="M29 51.2777V51.9981H6.40088V48.6761H4.12541V52H0V47.9556H3.39056V45.8214H0V23H0.734851V45.101H3.38859V42.2464H6.39891V40.3594H3.38859V36.7187H7.13573V39.639H9.27133V34.6251H3.38859V28.5508H4.12344V33.9028H10.0062V39.639H12.0354V36.7187H15.9618V40.3594H12.7702V42.2464H18.3555V47.9576H23.5132V48.678H17.6207V42.9668H12.7722V45.101H15.9638V48.678H12.0374V45.8234H10.0082V48.678H7.13573V51.2796H29V51.2777ZM12.7742 39.6371H15.2309V37.4392H12.7742V39.6371ZM9.2733 45.8214H7.1377V47.9556H9.2733V45.8214ZM7.1377 45.101H9.2733V42.9668H7.1377V45.101ZM12.7762 45.8214V47.9556H15.2329V45.8214H12.7762ZM12.0413 42.9668H10.0121V45.101H12.0413V42.9668ZM10.0121 40.3594V42.2464H12.0413V40.3594H10.0121ZM6.40482 39.639V37.4411H4.12935V39.639H6.40482ZM7.13967 42.2464H9.27527V40.3594H7.13967V42.2464ZM4.12935 45.101H6.40482V42.9668H4.12935V45.101ZM3.3945 48.678H0.740761V51.2796H3.3945V48.678ZM6.40482 47.9576V45.8234H4.12935V47.9576H6.40482Z" fill="#FEB74F"/>
</svg>
