<svg width="29" height="52" viewBox="0 0 29 52" fill="none" xmlns="http://www.w3.org/2000/svg">
<path d="M6.31493e-08 51.2777L1.68853e-10 51.9981L22.5991 51.9981L22.5991 48.6761L24.8746 48.6761L24.8746 52L29 52L29 47.9556L25.6094 47.9556L25.6094 45.8214L29 45.8214L29 23L28.2652 23L28.2651 45.101L25.6114 45.101L25.6114 42.2464L22.6011 42.2464L22.6011 40.3594L25.6114 40.3594L25.6114 36.7187L21.8643 36.7187L21.8643 39.639L19.7287 39.639L19.7287 34.6251L25.6114 34.6251L25.6114 28.5508L24.8766 28.5508L24.8766 33.9028L18.9938 33.9028L18.9938 39.639L16.9646 39.639L16.9646 36.7187L13.0382 36.7187L13.0382 40.3594L16.2298 40.3594L16.2298 42.2464L10.6445 42.2464L10.6445 47.9576L5.48675 47.9576L5.48675 48.678L11.3793 48.678L11.3793 42.9668L16.2278 42.9668L16.2278 45.101L13.0362 45.101L13.0362 48.678L16.9626 48.678L16.9626 45.8234L18.9918 45.8234L18.9918 48.678L21.8643 48.678L21.8643 51.2796L6.29805e-08 51.2796L6.31493e-08 51.2777ZM16.2258 39.6371L13.7691 39.6371L13.7691 37.4392L16.2258 37.4392L16.2258 39.6371ZM19.7267 45.8214L21.8623 45.8214L21.8623 47.9556L19.7267 47.9556L19.7267 45.8214ZM21.8623 45.101L19.7267 45.101L19.7267 42.9668L21.8623 42.9668L21.8623 45.101ZM16.2238 45.8214L16.2238 47.9556L13.7671 47.9556L13.7671 45.8214L16.2238 45.8214ZM16.9587 42.9668L18.9879 42.9668L18.9879 45.101L16.9587 45.101L16.9587 42.9668ZM18.9879 40.3594L18.9879 42.2464L16.9587 42.2464L16.9587 40.3594L18.9879 40.3594ZM22.5952 39.639L22.5952 37.4411L24.8707 37.4411L24.8707 39.639L22.5952 39.639ZM21.8603 42.2464L19.7247 42.2464L19.7247 40.3594L21.8603 40.3594L21.8603 42.2464ZM24.8707 45.101L22.5952 45.101L22.5952 42.9668L24.8707 42.9668L24.8707 45.101ZM25.6055 48.678L28.2592 48.678L28.2592 51.2796L25.6055 51.2796L25.6055 48.678ZM22.5952 47.9576L22.5952 45.8234L24.8707 45.8234L24.8707 47.9576L22.5952 47.9576Z" fill="#FEB74F"/>
<path d="M-6.31493e-08 0.722342L-1.68853e-10 0.00192891L22.5991 0.00193089L22.5991 3.32394L24.8746 3.32394L24.8746 -3.60655e-07L29 0L29 4.04436L25.6094 4.04436L25.6094 6.17855L29 6.17855L29 29L28.2651 29L28.2651 6.89897L25.6114 6.89897L25.6114 9.75358L22.6011 9.75358L22.6011 11.6406L25.6114 11.6406L25.6114 15.2813L21.8643 15.2813L21.8643 12.361L19.7287 12.361L19.7287 17.3749L25.6114 17.3749L25.6114 23.4492L24.8766 23.4492L24.8766 18.0972L18.9938 18.0972L18.9938 12.361L16.9646 12.361L16.9646 15.2812L13.0382 15.2812L13.0382 11.6406L16.2298 11.6406L16.2298 9.75358L10.6445 9.75358L10.6445 4.04242L5.48675 4.04242L5.48675 3.32201L11.3793 3.32201L11.3793 9.03316L16.2278 9.03316L16.2278 6.89897L13.0362 6.89897L13.0362 3.32201L16.9626 3.32201L16.9626 6.17662L18.9918 6.17662L18.9918 3.32201L21.8643 3.32201L21.8643 0.720412L-6.29805e-08 0.72041L-6.31493e-08 0.722342ZM16.2258 12.3629L13.7691 12.3629L13.7691 14.5608L16.2258 14.5608L16.2258 12.3629ZM19.7267 6.17855L21.8623 6.17855L21.8623 4.04436L19.7267 4.04436L19.7267 6.17855ZM21.8623 6.89897L19.7267 6.89897L19.7267 9.03317L21.8623 9.03317L21.8623 6.89897ZM16.2238 6.17855L16.2238 4.04435L13.7671 4.04435L13.7671 6.17855L16.2238 6.17855ZM16.9587 9.03316L18.9879 9.03317L18.9879 6.89897L16.9587 6.89897L16.9587 9.03316ZM18.9879 11.6406L18.9879 9.75358L16.9587 9.75358L16.9587 11.6406L18.9879 11.6406ZM22.5952 12.361L22.5952 14.5589L24.8707 14.5589L24.8707 12.361L22.5952 12.361ZM21.8603 9.75358L19.7247 9.75358L19.7247 11.6406L21.8603 11.6406L21.8603 9.75358ZM24.8707 6.89897L22.5952 6.89897L22.5952 9.03317L24.8707 9.03317L24.8707 6.89897ZM25.6055 3.32201L28.2592 3.32201L28.2592 0.720413L25.6055 0.720413L25.6055 3.32201ZM22.5952 4.04242L22.5952 6.17662L24.8707 6.17662L24.8707 4.04242L22.5952 4.04242Z" fill="#FEB74F"/>
</svg>
