<svg width="529" height="144" viewBox="0 0 529 144" fill="none" xmlns="http://www.w3.org/2000/svg">
<path d="M168.475 35.3512V22.4298H180.665V59H168.475V44.4938H150.19V59H138V22.4298H150.19V35.3512H168.475ZM215.407 34.6198C215.407 32.5882 214.401 31.5723 212.39 31.5723H200.169C198.138 31.5723 197.122 32.5882 197.122 34.6198V46.8099C197.122 48.8416 198.138 49.8574 200.169 49.8574H212.39C214.401 49.8574 215.407 48.8416 215.407 46.8099V34.6198ZM227.597 52.905C227.597 56.9683 225.565 59 221.502 59H191.027C186.963 59 184.932 56.9683 184.932 52.905V28.5248C184.932 24.4614 186.963 22.4298 191.027 22.4298H221.502C225.565 22.4298 227.597 24.4614 227.597 28.5248V52.905ZM214.432 65.1255H198.128V62.0475H214.432V65.1255ZM292.205 22.4298V31.5723H276.967V59H264.777V31.5723H249.539V22.4298H292.205ZM326.946 34.6198C326.946 32.5882 325.941 31.5723 323.929 31.5723H311.709C309.677 31.5723 308.661 32.5882 308.661 34.6198V46.8099C308.661 48.8416 309.677 49.8574 311.709 49.8574H323.929C325.941 49.8574 326.946 48.8416 326.946 46.8099V34.6198ZM339.136 52.905C339.136 56.9683 337.105 59 333.041 59H302.566C298.503 59 296.471 56.9683 296.471 52.905V28.5248C296.471 24.4614 298.503 22.4298 302.566 22.4298H333.041C337.105 22.4298 339.136 24.4614 339.136 28.5248V52.905ZM325.971 65.1255H309.667V62.0475H325.971V65.1255ZM317.804 19.3822C314.451 20.4793 307.341 21.0279 296.471 21.0279V17.9499C307.361 17.9499 314.472 17.4013 317.804 16.3042C321.115 17.4013 328.226 17.9499 339.136 17.9499V21.0279C328.247 21.0279 321.136 20.4793 317.804 19.3822ZM343.403 28.5248C343.403 24.4614 345.435 22.4298 349.498 22.4298H379.973C384.036 22.4298 386.068 24.4614 386.068 28.5248V36.6922H373.878V34.6198C373.878 32.5882 372.872 31.5723 370.861 31.5723H358.64C356.609 31.5723 355.593 32.5882 355.593 34.6198V46.8099C355.593 48.8416 356.609 49.8574 358.64 49.8574H370.861C372.872 49.8574 373.878 48.8416 373.878 46.8099V44.7376H386.068V52.905C386.068 56.9683 384.036 59 379.973 59H349.498C345.435 59 343.403 56.9683 343.403 52.905V28.5248Z" fill="#FEB74F"/>
<path d="M27.3047 107.448L39.0625 79.3235H54.6875L35.1172 126.198H19.4922L0 79.3235H15.625L27.3047 107.448ZM75.7812 79.3235V110.573C75.7812 113.178 77.0833 114.48 79.6875 114.48H95.3516C97.9297 114.48 99.2188 113.178 99.2188 110.573V79.3235H114.844V118.386C114.844 123.594 112.24 126.198 107.031 126.198H67.9688C62.7604 126.198 60.1562 123.594 60.1562 118.386V79.3235H75.7812ZM100.664 70.1829H117.891V90.7297L113.984 95.0266V77.2922H100.664V70.1829ZM159.375 94.9485C159.375 92.3443 158.086 91.0422 155.508 91.0422H139.844C137.24 91.0422 135.938 92.3443 135.938 94.9485V110.573C135.938 113.178 137.24 114.48 139.844 114.48H155.508C158.086 114.48 159.375 113.178 159.375 110.573V94.9485ZM175 118.386C175 123.594 172.396 126.198 167.188 126.198H128.125C122.917 126.198 120.312 123.594 120.312 118.386V87.136C120.312 81.9277 122.917 79.3235 128.125 79.3235H167.188C172.396 79.3235 175 81.9277 175 87.136V118.386ZM160.82 70.1829H178.047V90.7297L174.141 95.0266V77.2922H160.82V70.1829ZM180.469 79.3235H200L219.57 109.909L219.531 79.3235H235.156V126.198H215.625L196.094 96.1204V126.198H180.469V79.3235ZM295.312 118.386C295.312 123.594 292.708 126.198 287.5 126.198H248.438C243.229 126.198 240.625 123.594 240.625 118.386V87.136C240.625 81.9277 243.229 79.3235 248.438 79.3235H287.5C292.708 79.3235 295.312 81.9277 295.312 87.136V94.9485H279.688C279.688 92.3443 278.398 91.0422 275.82 91.0422H260.156C257.552 91.0422 256.25 92.3443 256.25 94.9485V110.573C256.25 113.178 257.552 114.48 260.156 114.48H277.773C279.049 114.48 279.688 113.868 279.688 112.644C279.688 111.264 279.036 110.573 277.734 110.573H267.969V98.8547H295.312V118.386ZM342.969 100.769H358.594V104.714H342.969V114.48H362.539C365.117 114.48 366.406 113.178 366.406 110.573V94.9485C366.406 92.3443 365.117 91.0422 362.539 91.0422H342.969V100.769ZM327.344 100.769V79.3235H370.312C378.125 79.3235 382.031 83.2167 382.031 91.0032V114.48C382.031 122.292 378.112 126.198 370.273 126.198H327.344V104.714H323.438V100.769H327.344ZM403.125 88.386V126.198H387.5V96.1204L403.125 88.386ZM387.5 94.8313V79.3235H403.125V87.136L387.5 94.8313ZM395.312 71.4719H426.562V75.4172H395.312V71.4719ZM408.594 79.3235H428.125L447.695 109.909L447.656 79.3235H463.281V126.198H443.75L424.219 96.1204V126.198H408.594V79.3235ZM507.812 95.886V79.3235H523.438V126.198H507.812V107.605H484.375V126.198H468.75V79.3235H484.375V95.886H507.812Z" fill="#FEB74F"/>
</svg>
